<?xml version="1.0" standalone="no"?>
<!DOCTYPE svg PUBLIC "-//W3C//DTD SVG 20010904//EN"
 "http://www.w3.org/TR/2001/REC-SVG-20010904/DTD/svg10.dtd">
<svg version="1.0" xmlns="http://www.w3.org/2000/svg"
 width="184.000000pt" height="184.000000pt" viewBox="0 0 184.000000 184.000000"
 preserveAspectRatio="xMidYMid meet">
<metadata>
Created by potrace 1.11, written by Peter Selinger 2001-2013
</metadata>
<g transform="translate(0.000000,184.000000) scale(0.100000,-0.100000)"
fill="#000000" stroke="none">
<path d="M428 1804 c-31 -16 -62 -71 -72 -126 -9 -49 7 -49 31 -1 24 48 66 64
95 35 17 -16 20 -34 22 -103 l1 -84 -27 -3 c-32 -4 -68 -45 -68 -76 1 -60 32
-90 35 -32 1 40 53 67 56 29 4 -48 5 -179 1 -189 -2 -7 -22 -24 -45 -39 -52
-33 -74 -62 -85 -113 -12 -50 6 -104 47 -146 25 -25 40 -30 92 -34 49 -4 61
-2 57 9 -3 9 -17 13 -39 11 -65 -5 -142 69 -133 127 10 62 39 88 108 97 34 5
55 1 89 -15 l45 -22 51 47 c35 33 48 50 39 55 -7 4 -17 1 -23 -8 -8 -10 -19
-13 -33 -9 -21 7 -22 13 -22 122 0 113 0 115 25 126 21 10 28 8 40 -8 14 -19
33 -83 42 -139 16 -106 54 -185 88 -185 16 0 97 85 89 93 -4 4 -16 -1 -26 -10
-17 -15 -20 -15 -34 -1 -8 8 -22 48 -30 88 -21 101 -51 177 -77 195 -20 14
-20 17 -6 28 84 65 109 99 109 149 0 46 -21 96 -53 126 l-22 21 -72 -54 -72
-55 -3 48 c-4 62 -23 52 -23 -13 1 -33 -4 -54 -15 -62 -23 -19 -27 -16 -34 28
-8 50 -28 82 -62 97 -33 15 -53 15 -86 -4z m341 -99 c47 -54 43 -97 -12 -149
-24 -23 -58 -49 -75 -59 l-32 -18 0 103 1 103 37 27 c20 14 40 27 43 27 4 1
21 -15 38 -34z m-144 -255 l0 -210 -22 0 -23 0 0 194 c0 190 1 195 22 210 12
9 23 16 23 16 0 0 0 -94 0 -210z"/>
<path d="M1142 1783 c-87 -58 -161 -160 -178 -245 -10 -50 -8 -138 4 -183 27
-95 110 -182 196 -207 62 -17 157 -13 207 10 146 65 193 251 88 346 -34 32
-102 56 -131 48 -18 -5 -4 21 70 129 83 120 95 158 38 114 -41 -31 -60 -31
-90 -2 l-23 23 -99 -79 c-54 -43 -101 -80 -103 -82 -1 -2 0 -9 4 -15 5 -8 11
-8 21 1 12 10 14 -17 14 -185 0 -124 -4 -196 -10 -196 -5 0 -10 -7 -10 -15 0
-22 8 -19 56 20 l42 35 -2 71 c-2 52 2 77 13 91 15 17 16 6 16 -139 l-1 -158
-27 -3 c-45 -5 -115 35 -137 79 -53 104 -59 316 -11 423 10 23 42 65 71 93 28
28 48 53 44 56 -5 3 -33 -11 -62 -30z m184 -70 c18 -3 41 0 53 7 16 8 8 -10
-31 -69 -50 -75 -53 -78 -56 -50 -5 47 -29 36 -28 -13 2 -42 -11 -88 -23 -88
-10 0 -7 203 3 218 5 9 16 11 30 7 11 -4 35 -9 52 -12z m57 -203 c54 -43 40
-100 -26 -100 -52 0 -67 15 -67 70 l0 50 34 0 c18 0 45 -9 59 -20z m-18 -124
c11 0 29 4 40 7 18 6 21 3 19 -25 -1 -18 -2 -43 -3 -56 -1 -20 -5 -22 -23 -16
-29 9 -68 9 -90 -1 -16 -6 -18 -1 -18 49 l0 56 28 -7 c15 -4 36 -7 47 -7z m29
-112 c14 -5 14 -9 2 -32 -18 -34 -55 -68 -83 -77 -22 -6 -23 -4 -23 44 0 37 5
53 18 60 19 12 62 14 86 5z"/>
<path d="M487 886 c-120 -43 -171 -140 -115 -218 15 -22 23 -27 29 -17 5 8 2
20 -7 30 -20 22 -21 72 -1 102 38 58 146 73 241 33 l40 -17 -74 -74 c-62 -62
-71 -75 -52 -75 12 0 22 5 22 10 0 6 4 10 8 10 5 0 10 -60 10 -134 1 -107 -1
-136 -13 -146 -8 -7 -12 -16 -9 -21 7 -11 94 47 95 64 0 7 1 81 1 165 0 126 3
156 17 172 15 19 18 19 49 4 37 -19 34 7 32 -293 0 -102 -3 -188 -6 -193 -7
-11 -33 -10 -95 3 -43 9 -63 21 -105 64 -57 56 -76 102 -79 190 -3 60 23 134
64 185 20 25 26 41 21 51 -13 20 -106 -79 -136 -146 -110 -239 92 -489 324
-403 53 20 142 97 142 124 0 21 -7 18 -53 -21 -22 -19 -43 -35 -46 -35 -4 0
-6 103 -6 228 l1 229 52 54 c29 29 52 57 52 61 0 15 -17 8 -40 -17 -21 -22
-25 -23 -49 -11 -86 45 -246 66 -314 42z"/>
<path d="M924 881 c-61 -37 -77 -120 -32 -168 29 -31 42 -18 17 17 -27 36 -20
77 16 86 13 3 46 -1 72 -10 67 -23 106 -20 142 10 l31 26 0 -276 0 -275 -36
15 c-108 45 -234 -8 -263 -111 -27 -98 46 -195 145 -195 57 0 57 16 0 22 -85
10 -138 74 -120 146 19 75 113 104 198 61 l42 -21 48 45 c30 27 46 49 42 56
-5 8 -12 9 -19 2 -9 -7 -13 3 -15 34 -2 35 1 46 17 54 25 14 97 14 122 1 28
-15 24 -59 -8 -92 -19 -20 -24 -31 -16 -39 8 -8 13 -7 18 1 5 8 20 -1 46 -26
l39 -38 46 46 c26 25 45 51 43 57 -3 8 -12 5 -26 -8 -41 -38 -46 -11 -48 227
-1 218 4 266 31 276 8 3 14 12 14 21 0 17 -16 20 -26 4 -4 -7 -22 4 -48 29
l-41 39 -46 -47 c-28 -28 -44 -52 -39 -59 5 -9 10 -8 20 4 7 8 17 15 22 15 19
0 38 -29 38 -59 0 -51 -61 -69 -135 -41 -23 9 -24 13 -22 79 2 38 0 77 -3 86
-6 16 -7 16 -24 0 -23 -23 -51 -22 -120 4 -69 26 -83 26 -122 2z m346 -205
c14 0 37 3 53 7 27 7 27 7 27 -38 l0 -45 -79 0 -79 0 1 45 c1 43 2 44 26 38
14 -4 37 -7 51 -7z m80 -206 c0 -47 -1 -49 -22 -41 -26 10 -94 8 -120 -3 -15
-7 -17 -2 -15 43 l1 51 78 0 78 0 0 -50z"/>
<path d="M1087 753 c-35 -27 -36 -31 -37 -90 0 -58 -2 -63 -22 -63 -49 -1 -79
-56 -64 -115 8 -31 26 -33 26 -2 0 30 11 44 35 49 19 3 20 -3 22 -87 1 -49 2
-94 2 -98 1 -5 19 6 41 23 l41 32 -1 172 c-1 94 2 179 5 189 10 25 -6 21 -48
-10z"/>
</g>
</svg>
